<?xml version="1.0" encoding="UTF-8"?> <svg xmlns="http://www.w3.org/2000/svg" xmlns:xlink="http://www.w3.org/1999/xlink" id="Calque_1" version="1.1" viewBox="0 0 300 52"><defs><style> .st0 { fill: none; } .st1 { fill: #7cb1c4; } .st2 { clip-path: url(#clippath); } </style><clipPath id="clippath"><rect class="st0" width="300" height="52"></rect></clipPath></defs><g class="st2"><g><path d="M71.3,17.1h2.7v6.6h.2c.6-2.1,1.8-3.8,3.4-5.1,1.7-1.3,3.5-2,5.6-2,3.1,0,5.6,1.1,7.5,3.2,1.9,2.2,2.9,4.9,2.9,8.1v12.3h-3v-12c0-2.5-.8-4.6-2.3-6.3-1.5-1.7-3.5-2.6-5.9-2.6s-4.2.9-5.7,2.7c-1.6,1.8-2.4,4-2.4,6.5v11.7h-3v-23.1h0Z"></path><path d="M100.7,37.2c-2.4-2.3-3.6-5.2-3.6-8.6s1.2-6.2,3.6-8.6c2.4-2.3,5.2-3.5,8.4-3.5s4.3.6,6.2,1.9c1.9,1.3,3.2,3,3.8,5v-6.4h2.8v23.1h-2.7v-6.4c-.8,2.1-2.1,3.7-4,5-1.9,1.3-3.9,1.9-6.2,1.9-3.2,0-6-1.2-8.4-3.5h0ZM116.2,35.3c1.8-1.8,2.8-4,2.8-6.6s-.9-4.8-2.8-6.7c-1.8-1.8-4.1-2.8-6.7-2.8s-4.8.9-6.6,2.8c-1.8,1.8-2.7,4.1-2.7,6.7s.9,4.8,2.7,6.6c1.8,1.8,4,2.7,6.6,2.7s4.8-.9,6.7-2.7Z"></path><path d="M129.7,37.2c-2.4-2.4-3.6-5.2-3.6-8.5s1.2-6.1,3.6-8.5c2.4-2.4,5.3-3.6,8.7-3.6s6.3,1.2,8.7,3.5c2.4,2.4,3.7,5.2,3.7,8.6s-1.2,6.1-3.6,8.5c-2.4,2.4-5.3,3.5-8.8,3.5s-6.3-1.2-8.7-3.5ZM145.1,35.3c1.8-1.8,2.8-4,2.8-6.6s-.9-4.8-2.8-6.7c-1.8-1.8-4.1-2.8-6.7-2.8s-4.8.9-6.6,2.8c-1.9,1.8-2.8,4.1-2.8,6.7s.9,4.8,2.8,6.6c1.8,1.8,4.1,2.8,6.6,2.8s4.8-.9,6.7-2.8h0Z"></path><path d="M170.7,36.9c1.5-.8,2.6-1.9,3.2-3.1h2.9c-.8,2.1-2.3,3.7-4.4,5-2.1,1.3-4.5,1.9-7.1,1.9s-6.4-1.2-8.8-3.5c-2.4-2.3-3.6-5.2-3.6-8.6s1.2-6.2,3.5-8.5c2.3-2.3,5.2-3.5,8.7-3.5s6.6,1.2,8.9,3.7c2.3,2.5,3.5,5.6,3.5,9.2h-21.6c.3,2.5,1.3,4.6,3.1,6.2,1.8,1.6,4,2.4,6.6,2.4s3.6-.4,5.2-1.2h0ZM158.8,21.4c-1.7,1.5-2.6,3.5-2.9,5.8h18.6c-.4-2.4-1.4-4.4-3.1-5.9-1.7-1.5-3.8-2.2-6.3-2.2s-4.6.8-6.3,2.3Z"></path><path d="M181.4,17.1h2.7v6.6h.2c.6-2.1,1.8-3.8,3.4-5.1,1.7-1.3,3.5-2,5.6-2,3.1,0,5.6,1.1,7.5,3.2,1.9,2.2,2.9,4.9,2.9,8.1v12.3h-3v-12c0-2.5-.8-4.6-2.3-6.3-1.5-1.7-3.5-2.6-5.9-2.6s-4.2.9-5.7,2.7c-1.6,1.8-2.4,4-2.4,6.5v11.7h-3v-23.1Z"></path><path d="M225,36.9c1.5-.8,2.6-1.9,3.2-3.1h2.9c-.8,2.1-2.3,3.7-4.4,5-2.1,1.3-4.5,1.9-7.1,1.9s-6.4-1.2-8.8-3.5c-2.4-2.3-3.6-5.2-3.6-8.6s1.2-6.2,3.5-8.5c2.3-2.3,5.2-3.5,8.7-3.5s6.6,1.2,8.9,3.7c2.3,2.5,3.5,5.6,3.5,9.2h-21.6c.3,2.5,1.3,4.6,3.1,6.2,1.8,1.6,4,2.4,6.6,2.4s3.6-.4,5.2-1.2h0ZM213.1,21.4c-1.7,1.5-2.6,3.5-2.9,5.8h18.6c-.4-2.4-1.4-4.4-3.1-5.9-1.7-1.5-3.8-2.2-6.3-2.2s-4.6.8-6.3,2.3Z"></path><path d="M235.7,17.1h2.7v7.1h.2c.6-2.3,1.8-4.1,3.5-5.5,1.7-1.4,3.6-2,5.8-2v2.7c-2.6,0-4.8.9-6.5,2.8-1.7,1.9-2.6,4.3-2.6,7.1v10.9h-3v-23.1h0Z"></path><path d="M253.6,49.2c-2.1-1.4-3.6-3.3-4.4-5.7h3.2c.7,1.6,1.8,2.9,3.4,3.9,1.6.9,3.3,1.4,5.1,1.4,2.8,0,5.1-.9,6.9-2.7,1.9-1.8,2.8-4,2.8-6.7v-6.3c-.7,2.1-2,3.9-3.8,5.2-1.9,1.3-4,2-6.2,2s-5.9-1.1-8.3-3.4c-2.3-2.3-3.5-5.1-3.5-8.4s1.2-6,3.5-8.3c2.4-2.3,5.1-3.4,8.3-3.4s4.4.6,6.3,1.9c1.9,1.3,3.2,3,3.8,5h0v-6.4h2.7v21.9c0,3.6-1.2,6.5-3.6,8.8-2.4,2.3-5.4,3.4-9,3.4s-5.2-.7-7.3-2h0ZM267.8,35c1.8-1.8,2.7-4,2.7-6.7s-.9-4.7-2.7-6.4c-1.8-1.8-4-2.7-6.6-2.7s-4.7.9-6.5,2.7c-1.8,1.8-2.7,4-2.7,6.5s.9,4.7,2.7,6.6,4,2.7,6.6,2.7,4.7-.9,6.5-2.7h0Z"></path><path d="M286.4,37.4l-10.4-20.3h3.2l8.8,17.4,8.8-17.4h3.2l-17.4,33.6h-3.2l7-13.3h0Z"></path><path class="st1" d="M35.6,20.1l-15.7-8.5,32,20.4v15.2L.5.5l51.3,51.4h-18.3L7,11.3l23.5,40.6h-9.4c-11.7,0-21.1-9.5-21.1-21.2V0h30.7c11.7,0,21.1,9.5,21.1,21.2v7.7c-5.4-2.9-10.8-5.8-16.3-8.8Z"></path><path d="M77.2,43.5v8.4h-.7v-1.5h0c-.2.5-.5.9-.9,1.2-.5.3-1,.5-1.5.5-.8,0-1.5-.3-2-.8-.6-.6-.8-1.3-.8-2.1s.3-1.5.8-2.1c.6-.6,1.2-.8,2-.8s1,.2,1.5.5c.4.3.8.7.9,1.2h0v-4.4h.7ZM75.8,50.7c.4-.4.7-1,.7-1.6s-.2-1.2-.7-1.6c-.4-.4-1-.7-1.6-.7s-1.2.2-1.6.7c-.4.4-.7,1-.7,1.6s.2,1.2.7,1.6c.4.4,1,.7,1.6.7s1.2-.2,1.6-.7Z"></path><path d="M86.5,51.9h-.6v-1.6h0c-.1.5-.4.9-.8,1.2-.4.3-.8.5-1.3.5-.7,0-1.3-.3-1.7-.8-.5-.5-.7-1.2-.7-1.9v-3h.7v2.9c0,.6.2,1.1.5,1.5.4.4.8.6,1.4.6s1-.2,1.3-.6c.4-.4.6-1,.6-1.6v-2.8h.7v5.6Z"></path><path d="M90.8,46.3h.6v1.7h0c.1-.6.4-1,.8-1.3.4-.3.9-.5,1.4-.5v.6c-.6,0-1.2.2-1.6.7-.4.5-.6,1-.6,1.7v2.6h-.7v-5.6h0Z"></path><path d="M97.5,51.2c-.6-.6-.9-1.3-.9-2.1s.3-1.5.9-2.1c.6-.6,1.2-.9,2-.9s1,.2,1.5.5c.5.3.8.7.9,1.2v-1.5h.7v5.6h-.6v-1.5c-.2.5-.5.9-1,1.2-.5.3-1,.5-1.5.5-.8,0-1.5-.3-2-.8h0ZM101.3,50.7c.4-.4.7-1,.7-1.6s-.2-1.2-.7-1.6c-.4-.4-1-.7-1.6-.7s-1.2.2-1.6.7c-.4.4-.7,1-.7,1.6s.2,1.2.7,1.6c.4.4,1,.7,1.6.7s1.2-.2,1.6-.7Z"></path><path d="M107.7,47.8h0c.2-.5.5-.9.9-1.2s.9-.5,1.5-.5c.8,0,1.4.3,2,.8.6.6.9,1.3.9,2.1s-.3,1.5-.9,2.1c-.6.6-1.2.8-2,.8s-1-.2-1.5-.5c-.5-.3-.8-.7-.9-1.2h0v1.5h-.7v-8.4h.7v4.4h0ZM111.6,50.7c.4-.4.7-1,.7-1.6s-.2-1.2-.7-1.6c-.4-.4-1-.7-1.6-.7s-1.2.2-1.6.7c-.4.4-.7,1-.7,1.6s.2,1.2.7,1.6c.4.4,1,.7,1.6.7s1.2-.2,1.6-.7Z"></path><path d="M116.7,43.5h.7v8.4h-.7v-8.4Z"></path><path d="M125.5,51.1c.4-.2.6-.5.8-.8h.7c-.2.5-.5.9-1.1,1.2s-1.1.5-1.7.5-1.6-.3-2.1-.8c-.6-.6-.9-1.3-.9-2.1s.3-1.5.8-2.1c.6-.6,1.3-.9,2.1-.9s1.6.3,2.2.9c.6.6.8,1.3.8,2.2h-5.2c0,.6.3,1.1.7,1.5.4.4,1,.6,1.6.6s.9,0,1.2-.3h0ZM122.7,47.3c-.4.4-.6.8-.7,1.4h4.5c0-.6-.3-1.1-.7-1.4-.4-.4-.9-.5-1.5-.5s-1.1.2-1.5.6Z"></path><path d="M139.5,46.9c.4.5.7,1.1.7,1.8v3.1h-.7v-3.1c0-.5-.2-1-.5-1.4-.3-.4-.8-.6-1.3-.6s-.9.2-1.2.6c-.4.4-.5.9-.5,1.4v3h-.7v-3.1c0-.5-.2-1-.5-1.4-.3-.4-.8-.6-1.3-.6s-.9.2-1.2.6c-.3.4-.5.9-.5,1.4v3h-.7v-5.6h.6v1.4h0c.1-.5.4-.8.8-1.1.4-.3.8-.4,1.2-.4s.9.1,1.3.4c.4.3.6.6.8,1,.2-.5.5-.8.9-1.1.4-.2.8-.4,1.2-.4.7,0,1.3.2,1.7.7h0Z"></path><path d="M148.2,51.1c.4-.2.6-.5.8-.8h.7c-.2.5-.5.9-1.1,1.2-.5.3-1.1.5-1.7.5s-1.6-.3-2.1-.8c-.6-.6-.9-1.3-.9-2.1s.3-1.5.8-2.1c.6-.6,1.3-.9,2.1-.9s1.6.3,2.1.9c.6.6.8,1.3.8,2.2h-5.2c0,.6.3,1.1.7,1.5.4.4,1,.6,1.6.6s.9,0,1.2-.3h0ZM145.3,47.3c-.4.4-.6.8-.7,1.4h4.5c0-.6-.3-1.1-.7-1.4-.4-.4-.9-.5-1.5-.5s-1.1.2-1.5.6Z"></path><path d="M153.6,46.3h.6v1.6h0c.2-.5.4-.9.8-1.2.4-.3.8-.5,1.3-.5.7,0,1.4.3,1.8.8.5.5.7,1.2.7,2v3h-.7v-2.9c0-.6-.2-1.1-.6-1.5-.4-.4-.8-.6-1.4-.6s-1,.2-1.4.7c-.4.4-.6,1-.6,1.6v2.8h-.7v-5.6h0Z"></path><path d="M166.4,51.1v.6c-.3.1-.6.2-1,.2-.6,0-1.1-.2-1.5-.6-.3-.4-.5-.9-.5-1.5v-3h-1.2v-.6h1.2v-1.6h.7v1.6h2.3v.6h-2.3v3c0,.4.1.8.3,1.1.2.3.6.4,1,.4s.6,0,.9-.2h0Z"></path><path d="M180.6,43.5v8.4h-.7v-1.5h0c-.2.5-.5.9-.9,1.2-.5.3-1,.5-1.5.5-.8,0-1.5-.3-2-.8-.6-.6-.9-1.3-.9-2.1s.3-1.5.9-2.1c.6-.6,1.2-.8,2-.8s1,.2,1.5.5.8.7.9,1.2h0v-4.4h.7ZM179.2,50.7c.4-.4.7-1,.7-1.6s-.2-1.2-.7-1.6c-.4-.4-1-.7-1.6-.7s-1.2.2-1.6.7c-.4.4-.7,1-.7,1.6s.2,1.2.7,1.6c.4.4,1,.7,1.6.7s1.2-.2,1.6-.7Z"></path><path d="M184.9,44.9c-.1-.1-.2-.2-.2-.4s0-.3.2-.4c.1-.1.2-.2.4-.2s.3,0,.4.2c.1.1.2.2.2.4s0,.3-.2.4c-.1.1-.2.2-.4.2s-.3,0-.4-.2h0ZM184.9,46.3h.7v5.6h-.7v-5.6Z"></path><path d="M191.2,44.4c-.2.3-.3.6-.3,1.1v.9h2.3v.6h-2.3v5h-.7v-5h-1.2v-.6h1.2v-.9c0-.6.2-1.1.5-1.4.3-.4.8-.6,1.5-.6s.7,0,1.1.2v.6c-.4-.1-.7-.2-1-.2-.5,0-.8.1-1.1.4h0Z"></path><path d="M198.2,44.4c-.2.3-.3.6-.3,1.1v.9h2.3v.6h-2.3v5h-.7v-5h-1.2v-.6h1.2v-.9c0-.6.2-1.1.5-1.4.3-.4.8-.6,1.5-.6s.7,0,1.1.2v.6c-.4-.1-.7-.2-1-.2-.5,0-.8.1-1.1.4h0Z"></path><path d="M207.2,51.1c.4-.2.6-.5.8-.8h.7c-.2.5-.5.9-1.1,1.2-.5.3-1.1.5-1.7.5s-1.6-.3-2.1-.8c-.6-.6-.9-1.3-.9-2.1s.3-1.5.8-2.1c.6-.6,1.3-.9,2.1-.9s1.6.3,2.1.9c.6.6.8,1.3.8,2.2h-5.2c0,.6.3,1.1.7,1.5.4.4,1,.6,1.6.6s.9,0,1.2-.3h0ZM204.3,47.3c-.4.4-.6.8-.7,1.4h4.5c0-.6-.3-1.1-.7-1.4-.4-.4-.9-.5-1.5-.5s-1.1.2-1.5.6ZM206,45.4h-.7l1.5-1.8h.7l-1.5,1.8Z"></path><path d="M212.6,46.3h.6v1.7h0c.1-.6.4-1,.8-1.3.4-.3.9-.5,1.4-.5v.6c-.6,0-1.2.2-1.6.7-.4.5-.6,1-.6,1.7v2.6h-.7v-5.6h0Z"></path><path d="M222.7,51.1c.4-.2.6-.5.8-.8h.7c-.2.5-.5.9-1.1,1.2-.5.3-1.1.5-1.7.5s-1.6-.3-2.1-.8c-.6-.6-.9-1.3-.9-2.1s.3-1.5.8-2.1c.6-.6,1.3-.9,2.1-.9s1.6.3,2.2.9c.6.6.8,1.3.8,2.2h-5.2c0,.6.3,1.1.7,1.5.4.4,1,.6,1.6.6s.9,0,1.2-.3h0ZM219.9,47.3c-.4.4-.6.8-.7,1.4h4.5c0-.6-.3-1.1-.7-1.4-.4-.4-.9-.5-1.5-.5s-1.1.2-1.5.6Z"></path><path d="M228.1,46.3h.6v1.6h0c.2-.5.4-.9.8-1.2.4-.3.8-.5,1.3-.5.7,0,1.4.3,1.8.8.5.5.7,1.2.7,2v3h-.7v-2.9c0-.6-.2-1.1-.6-1.5-.4-.4-.8-.6-1.4-.6s-1,.2-1.4.7c-.4.4-.6,1-.6,1.6v2.8h-.7v-5.6h0Z"></path><path d="M241,51.1v.6c-.3.1-.6.2-1,.2-.6,0-1.1-.2-1.5-.6-.3-.4-.5-.9-.5-1.5v-3h-1.2v-.6h1.2v-1.6h.7v1.6h2.3v.6h-2.3v3c0,.4.1.8.3,1.1.2.3.6.4,1,.4s.6,0,.9-.2h0Z"></path></g></g></svg> 